# xmcd
#
# Track frame offsets:
# 150
# 13822
# 20240
# 38997
# 57625
# 60457
# 69807
# 78585
# 85455
# 96015
# 99790
# 104596
# 111561
# 120686
# 123591
# 128583
# 144671
# 158342
# 172787
#
# Disc length: 2845 seconds
#
# Revision: 0
# Processed by: cddbd v1.4PL0 Copyright (c) Steve Scherf et al.
# Submitted via: Axialis_AX_CDPlayer 2.6
#
DISCID=000b1b13
DTITLE=Tenacious D - Tenacious D
DYEAR=2001
DGENRE=Humour
TTITLE0=Kielbasa
TTITLE1=One Note Song
TTITLE2=Tribute
TTITLE3=Wonderboy
TTITLE4=Hard Fucking
TTITLE5=Fuck Her Gently
TTITLE6=Explosivo
TTITLE7=Kyle Quit The Band
TTITLE8=The Road
TTITLE9=Cock Pushups
TTITLE10=Lee
TTITLE11=Friendship Test
TTITLE12=Friendship
TTITLE13=Karate Schnitzel
TTITLE14=Karate
TTITLE15=Rock Your Socks
TTITLE16=Drive-Thru
TTITLE17=Double Team
TTITLE18=City Hall
EXTD=YEAR: 2001 ID3G: 100  -  D&EL Edition
EXTT0=
EXTT1=
EXTT2=
EXTT3=
EXTT4=
EXTT5=
EXTT6=
EXTT7=
EXTT8=
EXTT9=
EXTT10=
EXTT11=
EXTT12=
EXTT13=
EXTT14=
EXTT15=
EXTT16=
EXTT17=
EXTT18=
PLAYORDER=
